<?xml version="1.0" encoding="UTF-8" standalone="no"?>
<svg width="23px" height="14px" viewBox="0 0 23 14" version="1.1" xmlns="http://www.w3.org/2000/svg" xmlns:xlink="http://www.w3.org/1999/xlink">
    <!-- Generator: Sketch 40.1 (33804) - http://www.bohemiancoding.com/sketch -->
    <title></title>
    <desc>Created with Sketch.</desc>
    <defs></defs>
    <g id="Page-1" stroke="none" stroke-width="1" fill="none" fill-rule="evenodd">
        <path d="M22.9966437,1.46044625 C22.9966437,1.83908235 22.8623973,2.17714523 22.5939004,2.47464503 L12.5253173,12.6166329 C12.2299708,12.9141327 11.8943547,13.0628803 11.518459,13.0628803 C11.1425634,13.0628803 10.8069473,12.9141327 10.5116007,12.6166329 L0.443017655,2.47464503 C0.147671075,2.17714523 0,1.83908235 0,1.46044625 C0,1.08181014 0.147671075,0.743747262 0.443017655,0.446247465 C0.738364236,0.148747667 1.07398032,0 1.44987596,0 L21.5870421,0 C21.9629378,0 22.2985538,0.148747667 22.5939004,0.446247465 C22.889247,0.743747262 23.0234934,1.08181014 22.9966437,1.46044625 L22.9966437,1.46044625 Z" id="" fill="#F9BE00"></path>
    </g>
</svg>