<?xml version="1.0" encoding="UTF-8" standalone="no"?>
<svg width="1155px" height="132px" viewBox="0 0 1155 132" version="1.1" xmlns="http://www.w3.org/2000/svg" xmlns:xlink="http://www.w3.org/1999/xlink">
    <!-- Generator: Sketch 40.1 (33804) - http://www.bohemiancoding.com/sketch -->
    <title>Group 21</title>
    <desc>Created with Sketch.</desc>
    <defs></defs>
    <g id="Page-1" stroke="none" stroke-width="1" fill="none" fill-rule="evenodd">
        <g id="Group-21">
            <rect id="Rectangle-26" fill="#FFFFFF" x="0" y="122" width="1155" height="10"></rect>
            <g id="Group-20">
                <path d="M425,122 C425,69.7408518 388.98228,33.5327405 344.55217,33.5327405 C327.2672,33.5327405 311.255445,39.0128389 298.14233,48.3390197 C285.686517,19.8749422 257.386609,0 224.469067,0 C190.706754,0 161.802121,20.9081451 149.868328,50.547246 C134.445919,39.8181124 115.731276,33.5327405 95.556325,33.5327405 C42.782024,33.5327405 0,76.5409117 0,122 C40.0277008,122 372.022161,122 425,122 Z" id="Combined-Shape" fill="#FEF2CC"></path>
                <path d="M1155,122 C1155,69.7408518 1118.98228,33.5327405 1074.55217,33.5327405 C1057.2672,33.5327405 1041.25545,39.0128389 1028.14233,48.3390197 C1015.68652,19.8749422 987.386609,0 954.469067,0 C920.706754,0 891.802121,20.9081451 879.868328,50.547246 C864.445919,39.8181124 845.731276,33.5327405 825.556325,33.5327405 C772.782024,33.5327405 730,76.5409117 730,122 C770.027701,122 1102.02216,122 1155,122 Z" id="Combined-Shape" fill="#FEF2CC"></path>
                <g id="Group-5" transform="translate(213.000000, 83.000000)">
                    <path d="M143.776493,38.3894737 L194.082924,7.05502529 C199.500382,3.68064399 208.288188,3.68336613 213.701277,7.05502529 L257.645394,34.4265691 C261.159202,36.6152209 260.650737,38.3894737 256.509435,38.3894737 L143.776493,38.3894737 Z" id="Path-2-Copy" fill="#FBDC8A"></path>
                    <path d="M0,38.3894737 L50.3064304,7.05502529 C55.723889,3.68064399 64.5116952,3.68336613 69.9247835,7.05502529 L113.8689,34.4265691 C117.382709,36.6152209 116.874244,38.3894737 112.732941,38.3894737 L0,38.3894737 Z" id="Path-2-Copy" fill="#FBDC8A"></path>
                    <path d="M53.5824606,48.9902303 C49.4437333,48.9902303 48.9471852,47.2237421 52.4760467,45.0430262 L117.960921,4.57560998 C125.716619,-0.21714616 138.286596,-0.219922178 146.046786,4.57560998 L211.53166,45.0430262 C215.059332,47.2230068 214.563743,48.9902303 210.425247,48.9902303 L53.5824606,48.9902303 Z" id="Path-2-Copy" fill="#FCD46F"></path>
                </g>
                <g id="Group-5" transform="translate(693.000000, 83.000000)">
                    <path d="M143.776493,38.3894737 L194.082924,7.05502529 C199.500382,3.68064399 208.288188,3.68336613 213.701277,7.05502529 L257.645394,34.4265691 C261.159202,36.6152209 260.650737,38.3894737 256.509435,38.3894737 L143.776493,38.3894737 Z" id="Path-2-Copy" fill="#FBDC8A"></path>
                    <path d="M0,38.3894737 L50.3064304,7.05502529 C55.723889,3.68064399 64.5116952,3.68336613 69.9247835,7.05502529 L113.8689,34.4265691 C117.382709,36.6152209 116.874244,38.3894737 112.732941,38.3894737 L0,38.3894737 Z" id="Path-2-Copy" fill="#FBDC8A"></path>
                    <path d="M53.5824606,48.9902303 C49.4437333,48.9902303 48.9471852,47.2237421 52.4760467,45.0430262 L117.960921,4.57560998 C125.716619,-0.21714616 138.286596,-0.219922178 146.046786,4.57560998 L211.53166,45.0430262 C215.059332,47.2230068 214.563743,48.9902303 210.425247,48.9902303 L53.5824606,48.9902303 Z" id="Path-2-Copy" fill="#FCD46F"></path>
                </g>
                <g id="Group-6" transform="translate(567.000000, 99.000000)">
                    <rect id="Rectangle-11" fill="#FCD46F" x="2" y="13" width="28.3101266" height="20"></rect>
                    <rect id="Rectangle-11" fill="#F9C92D" transform="translate(16.000000, 7.250000) scale(1, -1) translate(-16.000000, -7.250000) " x="0" y="0" width="32" height="14.5"></rect>
                </g>
            </g>
        </g>
    </g>
</svg>